Coordinates
version=1
nRows=17
nColumns=40
inDegrees=yes

Units are S.I. units (second, meters, Newtons, ...)
Angles are in degrees.

endheader
time	pelvis_tilt	pelvis_list	pelvis_rotation	pelvis_tx	pelvis_ty	pelvis_tz	hip_flexion_r	hip_adduction_r	hip_rotation_r	knee_angle_r	knee_angle_r_beta	ankle_angle_r	subtalar_angle_r	mtp_angle_r	hip_flexion_l	hip_adduction_l	hip_rotation_l	knee_angle_l	knee_angle_l_beta	ankle_angle_l	subtalar_angle_l	mtp_angle_l	lumbar_extension	lumbar_bending	lumbar_rotation	arm_flex_r	arm_add_r	arm_rot_r	elbow_flex_r	pro_sup_r	wrist_flex_r	wrist_dev_r	arm_flex_l	arm_add_l	arm_rot_l	elbow_flex_l	pro_sup_l	wrist_flex_l	wrist_dev_l
      6.65500000	     -3.60435246	     -2.72151477	     -6.18680722	      1.04359804	      0.92252453	      0.46309121	     31.26568132	     -3.36620926	    -11.86555518	     16.92338750	     16.92338750	      3.99928515	      6.03156136	      7.67026837	     -2.46705667	     -2.70249206	    -13.89878953	      9.97138162	      9.97138162	     15.90668634	     -9.77847548	     -9.13919796	    -11.06164053	      6.03525605	      2.22150117	    -12.10006843	    -14.46827671	    -19.72704825	     18.53888709	     48.05500958	      0.00000000	      0.00000000	     27.53290978	    -21.09449567	     -0.12175810	     74.58970267	     47.04659215	      0.00000000	      0.00000000
      6.66621429	     -3.61184044	     -2.61805857	     -6.23279678	      1.04536709	      0.92025795	      0.46512845	     30.73284691	     -3.14473716	    -12.52181791	     15.78545783	     15.78545783	      4.59826641	      6.30557005	      8.24051172	     -3.39766907	     -2.60447758	    -14.01241222	      9.67679850	      9.67679850	     16.48616666	     -9.48169520	     -9.09955200	    -10.83223177	      5.90911799	      2.35759467	    -13.65528881	    -14.42435973	    -19.94863055	     18.75916128	     48.04327410	      0.00000000	      0.00000000	     28.05026388	    -21.07819544	     -0.67261161	     76.52196183	     47.13087931	      0.00000000	      0.00000000
      6.67742857	     -3.68641785	     -2.55682119	     -6.19392399	      1.04712909	      0.91777222	      0.46725442	     30.46776474	     -2.97348559	    -13.06452328	     15.44810939	     15.44810939	      4.96802807	      6.07272536	      8.29450668	     -4.10906385	     -2.61100718	    -13.93487314	      9.64720583	      9.64720583	     17.11308245	     -9.37513563	     -9.10112217	    -10.46662738	      5.82676109	      2.16847518	    -14.95876050	    -14.43784098	    -20.07736759	     18.74312059	     48.03883349	      0.00000000	      0.00000000	     28.54020966	    -21.27470503	     -1.08703830	     77.61404331	     47.18571492	      0.00000000	      0.00000000
      6.68864286	     -3.69184745	     -2.58886359	     -6.17721305	      1.04912010	      0.91549270	      0.46957895	     30.00641852	     -2.69312489	    -13.41153183	     15.23775866	     15.23775866	      4.78658505	      5.65113680	      7.30384972	     -4.77327501	     -2.80425312	    -14.30484615	     10.02460641	     10.02460641	     18.66224317	     -8.30182901	     -7.28269699	    -10.39083896	      5.89943838	      1.88862025	    -16.90470177	    -14.27324888	    -20.56239402	     21.72890100	     47.88289790	      0.00000000	      0.00000000	     27.73941810	    -21.25334977	     -2.73680054	     81.77804137	     47.40525173	      0.00000000	      0.00000000
      6.69985714	     -3.71529357	     -2.70320575	     -6.09334296	      1.05106684	      0.91322469	      0.47208396	     29.56683438	     -2.35226477	    -13.58216389	     15.26493217	     15.26493217	      3.68900125	      4.73079475	      4.37299956	     -5.26016175	     -3.14708688	    -14.45757821	     10.69485891	     10.69485891	     20.19343287	     -7.60361989	     -5.34483196	    -10.15662273	      5.99796009	      1.83226306	    -18.26758771	    -14.16237191	    -20.11926618	     22.64076586	     47.72789379	      0.00000000	      0.00000000	     27.90993052	    -21.00966694	     -3.54673091	     83.40324805	     47.54538982	      0.00000000	      0.00000000
      6.71107143	     -3.78638022	     -2.85307044	     -5.98562146	      1.05290832	      0.91096348	      0.47460818	     29.42602670	     -2.10914710	    -13.75582839	     16.01964975	     16.01964975	      3.18488459	      4.00374755	      3.40671642	     -5.64587321	     -3.52044862	    -14.23469805	     11.35077712	     11.35077712	     20.85200497	     -7.86176724	     -5.05194106	     -9.88142004	      6.13967169	      2.03436672	    -19.21233185	    -13.98241653	    -19.98690611	     22.40656886	     47.70399018	      0.00000000	      0.00000000	     28.29093883	    -20.60575300	     -3.71548668	     84.59301498	     47.59262064	      0.00000000	      0.00000000
      6.72228571	     -3.76821581	     -3.08189182	     -5.86273217	      1.05495137	      0.90905386	      0.47735294	     28.95752488	     -1.69657169	    -13.60680007	     16.34469367	     16.34469367	      0.81062421	      2.50758738	     -2.34779733	     -5.97928025	     -4.06119080	    -14.22110903	     12.43575517	     12.43575517	     22.39431782	     -7.43154569	     -2.63832603	     -9.72172437	      6.33230813	      1.72951160	    -19.95087712	    -13.92477436	    -19.20248572	     23.04711333	     47.52182844	      0.00000000	      0.00000000	     27.96183585	    -20.53050627	     -4.54420707	     86.35940185	     47.75513854	      0.00000000	      0.00000000
      6.73350000	     -3.84382272	     -3.35214221	     -5.76015954	      1.05667101	      0.90735343	      0.48017409	     28.94793155	     -1.35814736	    -13.42250697	     17.53521708	     17.53521708	      0.20052561	      1.49730346	     -3.16171396	     -6.08356176	     -4.64968779	    -13.85280434	     13.60833088	     13.60833088	     22.77460617	     -8.13040257	     -2.41469403	     -9.50467684	      6.57842326	      1.89266341	    -20.44788145	    -13.66447471	    -19.06246627	     22.83145386	     47.50105054	      0.00000000	      0.00000000	     28.06138190	    -20.07835635	     -4.69653429	     87.39759224	     47.79863820	      0.00000000	      0.00000000
      6.74471429	     -3.72665531	     -3.70055150	     -5.68893006	      1.05841094	      0.90628466	      0.48312287	     28.73102007	     -0.97017196	    -13.27135875	     18.79785600	     18.79785600	     -0.18358906	      0.71903721	     -3.84016731	     -6.28770481	     -5.33533516	    -13.51735738	     15.00607545	     15.00607545	     22.99447433	     -8.93741821	     -2.26505971	     -9.53352112	      6.86225437	      2.00348340	    -20.60795389	    -13.54487938	    -18.99780438	     22.69022929	     47.49387521	      0.00000000	      0.00000000	     28.09000774	    -19.76079250	     -4.87161195	     88.15710755	     47.83145568	      0.00000000	      0.00000000
      6.75592857	     -3.71140557	     -4.05034569	     -5.63095740	      1.06002203	      0.90551968	      0.48627016	     28.52827138	     -0.44498923	    -12.67627087	     19.77118436	     19.77118436	     -1.22149487	     -0.90786212	     -6.28928925	     -6.09995946	     -6.08760370	    -13.04473235	     16.93659624	     16.93659624	     23.39289077	     -9.94341889	     -1.27081376	     -9.48343516	      7.13646426	      1.62689969	    -20.04245752	    -13.42309629	    -18.67537178	     22.14476110	     47.46308444	      0.00000000	      0.00000000	     27.10943393	    -19.53783492	     -5.91907597	     89.95187416	     47.97260010	      0.00000000	      0.00000000
      6.76714286	     -3.63391745	     -4.44109030	     -5.61012158	      1.06144280	      0.90526362	      0.48950939	     28.34381403	      0.01974833	    -12.44543070	     21.01413096	     21.01413096	     -1.10916097	     -1.49720586	     -6.56611560	     -5.75613178	     -6.94067476	    -12.66999205	     19.22805899	     19.22805899	     23.12379430	    -11.19113002	     -1.47389151	     -9.53764913	      7.44442167	      1.88230800	    -19.75346543	    -13.16289873	    -18.56389153	     21.93374353	     47.46025238	      0.00000000	      0.00000000	     26.91423347	    -19.01661483	     -5.92978740	     90.42548308	     47.98858703	      0.00000000	      0.00000000
      6.77835714	     -3.50864407	     -4.86125642	     -5.60886572	      1.06272697	      0.90551746	      0.49289784	     28.02617924	      0.56562655	    -12.12978032	     22.08778382	     22.08778382	     -0.77709818	     -2.15209887	     -6.68474151	     -5.23141765	     -7.86379234	    -12.23251959	     21.92091750	     21.92091750	     22.55189117	    -12.62646072	     -1.78709809	     -9.67366466	      7.74768381	      2.09596441	    -19.20552503	    -12.95521040	    -18.46029060	     21.72755010	     47.46234106	      0.00000000	      0.00000000	     26.51635030	    -18.53777425	     -5.97923279	     90.84493639	     48.00389360	      0.00000000	      0.00000000
      6.78957143	     -3.13972776	     -5.18428507	     -5.72922066	      1.06404318	      0.90664267	      0.49644743	     27.30482847	      1.06181115	    -11.77339693	     22.89201219	     22.89201219	     -0.20930989	     -2.46155831	     -6.83613618	     -4.91577495	     -8.66112886	    -11.99164682	     24.70909059	     24.70909059	     21.65339405	    -13.93611121	     -2.02384491	    -10.10953202	      7.90762030	      2.40052275	    -18.37115616	    -12.68450016	    -18.36314803	     21.73413194	     47.45959099	      0.00000000	      0.00000000	     25.84170442	    -18.04563872	     -5.90874745	     90.92917540	     48.00029059	      0.00000000	      0.00000000
      6.80078571	     -3.40777283	     -5.67942933	     -5.66851105	      1.06460955	      0.90702155	      0.50007568	     27.30639961	      1.83709476	    -11.24565103	     23.71749493	     23.71749493	      0.83255064	     -3.53514825	     -5.04647911	     -3.26018940	     -9.87364349	    -11.32576342	     28.45024142	     28.45024142	     19.63265720	    -16.13624127	     -4.26982838	     -9.79662964	      8.22100142	      1.72729845	    -16.24357772	    -12.66774346	    -17.95113250	     19.63795640	     47.53796341	      0.00000000	      0.00000000	     24.35568964	    -17.83024849	     -7.11830210	     92.28006690	     48.13328775	      0.00000000	      0.00000000
      6.81200000	     -3.20998655	     -6.12129706	     -5.65160271	      1.06539637	      0.90836704	      0.50367813	     26.54784211	      2.42827755	    -11.28176242	     24.11244735	     24.11244735	      1.58600406	     -3.53750656	     -5.24372787	     -2.05406563	    -11.01189242	    -10.89059103	     32.33859364	     32.33859364	     18.12981743	    -17.34064543	     -4.48481997	    -10.06818199	      8.46012158	      1.98711199	    -15.21696723	    -12.40595368	    -17.85813630	     19.79479545	     47.53175684	      0.00000000	      0.00000000	     23.76473727	    -17.29523199	     -6.92238275	     92.14163694	     48.11909867	      0.00000000	      0.00000000
      6.82321429	     -3.11221864	     -6.52143350	     -5.62595235	      1.06591131	      0.90975479	      0.50728364	     25.79566454	      3.03101504	    -11.26497061	     24.26765353	     24.26765353	      2.32798444	     -3.64330770	     -5.31766066	     -0.50739329	    -12.17805338	    -10.44199133	     36.49430595	     36.49430595	     16.36551737	    -18.20423686	     -4.55534587	    -10.18506636	      8.64458489	      2.19391964	    -14.01079757	    -12.10034814	    -17.75114896	     20.01154768	     47.52293750	      0.00000000	      0.00000000	     22.97936452	    -16.75351792	     -6.70443956	     91.85625715	     48.09914882	      0.00000000	      0.00000000
      6.83442857	     -3.23353070	     -6.88570154	     -5.55775320	      1.06614247	      0.91093039	      0.51079542	     25.17597682	      3.64370779	    -11.22409377	     24.18345896	     24.18345896	      3.06895196	     -3.86272981	     -5.13094863	      1.54973925	    -13.37553093	     -9.84809282	     40.92430143	     40.92430143	     14.55004519	    -18.61670779	     -4.06229726	    -10.00978612	      8.82437297	      2.19936464	    -12.67804566	    -11.82290666	    -17.59936203	     20.14318427	     47.51486986	      0.00000000	      0.00000000	     21.91229018	    -16.30195290	     -6.56722732	     91.30788089	     48.08126732	      0.00000000	      0.00000000
